<?xml version="1.0" standalone="no"?>
<!DOCTYPE svg PUBLIC "-//W3C//DTD SVG 20010904//EN"
 "http://www.w3.org/TR/2001/REC-SVG-20010904/DTD/svg10.dtd">
<svg version="1.0" xmlns="http://www.w3.org/2000/svg"
 width="600.000000pt" height="600.000000pt" viewBox="0 0 600.000000 600.000000"
 preserveAspectRatio="xMidYMid meet">
<metadata>
Created by potrace 1.14, written by Peter Selinger 2001-2017
</metadata>
<g transform="translate(0.000000,600.000000) scale(0.100000,-0.100000)"
fill="#000000" stroke="none">
<path d="M3305 5508 c-16 -5 -39 -11 -50 -13 -11 -3 -148 -39 -305 -80 -157
-42 -292 -78 -300 -80 -28 -7 -620 -162 -760 -199 -52 -13 -131 -34 -175 -46
-1242 -323 -1182 -304 -1267 -400 -39 -44 -90 -140 -104 -196 -11 -43 -12
-264 -1 -264 5 0 7 -9 4 -20 -3 -11 -1 -20 4 -20 5 0 9 -5 9 -11 0 -5 -4 -7
-10 -4 -5 3 -10 2 -10 -4 0 -5 8 -14 17 -19 19 -11 27 -42 10 -39 -7 1 -11 -6
-11 -15 1 -13 -2 -15 -15 -9 -11 6 -25 4 -41 -5 -24 -15 -25 -15 -2 -8 22 5
23 4 12 -16 -8 -16 -15 -19 -24 -11 -9 8 -13 7 -13 -3 0 -18 18 -15 48 7 13
10 18 15 10 11 -10 -5 -12 -3 -6 5 5 9 11 9 17 3 7 -7 5 -17 -4 -31 -8 -12
-18 -18 -21 -14 -4 3 -7 1 -7 -5 0 -16 10 -15 29 2 12 11 21 12 31 5 12 -9 11
-10 -4 -5 -13 5 -17 2 -13 -9 4 -8 1 -17 -5 -21 -7 -5 -8 -2 -3 6 5 9 4 11 -3
6 -14 -9 -16 -26 -3 -26 5 0 17 7 25 16 9 8 16 11 16 5 0 -5 -5 -13 -10 -16
-14 -8 -3 -24 24 -35 17 -7 18 -9 3 -9 -11 -1 -15 -5 -11 -13 4 -7 3 -8 -4 -4
-7 4 -12 3 -12 -2 0 -5 10 -14 23 -20 22 -11 22 -11 -4 -8 -14 2 -32 0 -40 -6
-12 -8 -11 -9 2 -5 16 5 44 -28 35 -41 -2 -4 4 -8 14 -8 10 0 17 3 15 6 -2 3
6 12 17 19 20 12 20 12 4 -10 -20 -29 -20 -40 -1 -33 17 7 21 -21 5 -31 -5 -3
-8 0 -7 7 2 7 2 9 -1 5 -2 -4 -10 0 -16 9 -10 14 -16 15 -32 5 -17 -11 -17
-11 6 -6 21 5 23 4 10 -7 -14 -12 -14 -15 2 -31 10 -9 18 -13 18 -9 0 4 -5 13
-12 20 -9 9 -9 12 -1 12 7 0 15 -4 18 -10 3 -5 16 -8 28 -6 12 3 24 5 27 5 3
1 -2 6 -10 11 -9 6 -10 10 -3 10 16 0 26 -17 13 -25 -5 -3 -10 -13 -10 -21 0
-8 4 -13 9 -10 5 3 14 -8 21 -24 7 -16 15 -28 19 -26 4 3 8 -5 8 -16 2 -20 1
-20 -12 -2 -12 17 -13 15 -11 -18 3 -40 -2 -46 -22 -26 -9 9 -7 15 6 25 9 8
11 11 4 8 -11 -6 -12 -3 -2 15 6 12 9 24 6 28 -3 3 -6 0 -6 -7 0 -7 -6 -11
-14 -8 -8 3 -22 -1 -33 -8 -10 -8 -13 -15 -8 -15 6 0 4 -4 -3 -9 -11 -7 -11
-9 1 -14 12 -4 15 0 12 14 -3 13 0 19 8 16 7 -2 12 -11 12 -20 0 -9 6 -22 13
-29 6 -6 12 -19 12 -27 0 -11 3 -11 13 4 8 10 19 15 24 12 6 -4 13 0 17 8 3 8
11 15 18 15 10 0 9 -3 -1 -9 -13 -8 -13 -12 0 -27 9 -11 9 -15 1 -10 -6 4 -12
3 -12 -2 0 -16 13 -22 27 -11 9 9 13 8 13 0 0 -6 -4 -11 -10 -11 -5 0 -10 -5
-10 -10 0 -7 6 -7 20 0 14 7 20 7 20 0 0 -5 -6 -10 -14 -10 -12 0 -14 -13 -6
-40 1 -3 5 4 10 15 7 16 9 17 9 3 1 -9 4 -18 9 -21 4 -2 2 -3 -4 -1 -6 1 -17
-3 -24 -9 -10 -9 -11 -9 -5 2 6 10 4 12 -5 6 -9 -6 -11 -4 -5 5 6 9 4 11 -5 5
-9 -5 -11 -4 -6 3 4 7 3 12 -2 12 -21 0 -20 -14 3 -32 14 -11 25 -24 25 -30 0
-6 -8 -4 -18 5 -10 10 -22 17 -26 17 -4 0 6 -12 21 -26 26 -23 26 -25 6 -19
-13 4 -23 2 -23 -3 0 -5 6 -9 13 -10 13 -2 58 -9 67 -11 3 -1 -3 -6 -13 -12
-13 -8 -23 -7 -35 3 -15 11 -15 11 -5 -3 7 -9 27 -16 45 -17 23 -1 28 2 18 8
-13 8 -13 10 0 10 13 0 13 1 0 10 -11 7 -11 10 -2 10 7 0 10 5 6 11 -3 6 -9 7
-13 3 -9 -13 -44 -17 -36 -5 3 6 13 11 21 11 9 0 12 5 8 12 -4 6 4 3 18 -8 14
-10 23 -21 19 -24 -4 -3 -7 -13 -8 -22 -1 -34 -3 -39 -11 -34 -4 2 -9 -4 -9
-15 -2 -17 20 -37 40 -37 16 0 20 -12 4 -12 -9 0 -19 -5 -23 -11 -4 -8 0 -9
15 -4 15 4 20 2 18 -7 -2 -7 -2 -10 0 -5 3 4 9 7 14 7 5 0 8 -3 8 -7 -4 -22 2
-34 14 -30 17 6 67 -31 67 -49 0 -9 5 -12 12 -8 6 4 4 -3 -5 -16 -15 -22 -15
-24 16 -41 29 -16 33 -16 44 -1 7 9 13 11 13 5 0 -5 -10 -18 -22 -29 -12 -10
-18 -13 -14 -6 10 17 -9 15 -24 -3 -18 -22 -24 -11 -9 17 6 12 8 20 4 16 -4
-4 -15 -3 -25 2 -29 15 -31 0 -4 -35 18 -24 21 -34 12 -38 -8 -3 -6 -6 5 -6
11 -1 17 5 15 15 -2 10 2 19 8 21 5 2 10 -8 10 -22 0 -14 -5 -25 -10 -25 -6
-1 -2 -6 9 -13 11 -7 20 -18 21 -24 2 -31 5 -34 27 -29 12 3 16 3 9 0 -6 -3
-9 -11 -5 -17 4 -6 0 -8 -9 -5 -8 4 -15 0 -15 -8 0 -9 5 -10 16 -4 17 9 71
-14 71 -30 0 -6 -3 -9 -8 -9 -19 3 -30 -2 -36 -17 -5 -13 -4 -14 7 -5 11 8 18
6 31 -8 10 -11 16 -23 13 -28 -3 -5 1 -17 9 -28 9 -12 14 -14 14 -5 0 7 3 10
7 6 7 -7 13 -38 14 -71 0 -19 1 -19 10 -2 10 17 29 15 29 -4 0 -6 -6 -7 -12
-3 -9 5 -8 2 1 -9 15 -19 24 -16 27 8 1 8 -3 15 -9 15 -5 0 -8 3 -5 6 4 3 21
-2 38 -11 23 -12 29 -20 22 -27 -13 -13 4 -52 18 -43 6 4 7 -1 3 -11 -4 -10
-2 -15 3 -11 6 3 16 -3 23 -15 7 -11 8 -17 2 -13 -6 3 -11 -1 -11 -9 0 -19 11
-21 27 -5 8 8 13 7 18 -2 5 -8 4 -10 -4 -5 -7 4 -14 -1 -19 -14 l-8 -22 -16
25 c-11 16 -13 28 -7 34 7 7 5 12 -5 16 -8 3 -26 -5 -41 -19 -14 -13 -21 -24
-16 -24 6 0 19 10 31 22 22 24 26 18 10 -12 -9 -16 -8 -18 6 -13 11 4 15 2 11
-4 -4 -6 -2 -13 5 -15 7 -3 3 -12 -11 -25 -16 -15 -19 -23 -10 -28 7 -5 10 -4
7 1 -6 11 28 45 36 37 3 -4 0 -13 -7 -21 -6 -9 -7 -13 -2 -10 6 3 16 0 23 -8
7 -8 10 -14 7 -14 -4 0 3 -12 14 -26 20 -26 19 -59 -3 -47 -6 3 -7 2 -3 -3 5
-5 13 -10 18 -10 5 -1 14 -2 20 -3 5 0 7 -7 3 -13 -6 -10 -4 -10 8 0 11 9 18
10 23 2 3 -5 1 -10 -6 -10 -8 0 -8 -4 1 -15 7 -8 9 -15 4 -15 -5 0 -2 -5 6
-10 8 -5 16 -14 16 -20 1 -5 2 -15 3 -21 0 -6 8 -8 17 -5 10 4 14 1 11 -6 -2
-7 -12 -12 -22 -11 -12 1 -14 -2 -6 -10 7 -7 15 -6 26 3 18 15 21 0 3 -18 -9
-9 -9 -12 0 -12 7 0 12 6 12 13 0 8 4 7 10 -3 13 -21 12 -30 -2 -26 -7 1 -10
1 -5 -1 4 -3 5 -9 1 -14 -3 -5 -1 -9 3 -9 5 0 14 9 21 20 8 13 9 20 1 20 -6 0
-8 9 -4 23 4 15 3 18 -3 9 -7 -11 -10 -10 -16 3 -3 9 -4 21 -1 25 3 5 -4 7
-15 5 -11 -2 -18 0 -15 6 4 5 15 9 26 9 16 0 19 -5 14 -22 -6 -23 -6 -23 10
-3 12 14 16 16 15 5 -4 -31 0 -39 18 -33 14 5 13 3 -3 -10 -23 -19 -13 -22 17
-6 15 8 23 8 32 -2 8 -9 8 -10 -1 -5 -18 10 -57 -12 -70 -39 -6 -14 -7 -23 -2
-19 5 3 9 0 9 -7 0 -18 11 -4 14 18 2 10 6 16 11 15 4 -2 12 2 17 10 7 10 8 9
4 -4 -3 -10 -1 -18 4 -18 6 0 10 -5 10 -11 0 -8 -5 -8 -15 1 -16 13 -20 3 -6
-18 6 -11 11 -10 25 3 9 9 16 12 16 6 0 -6 -9 -15 -19 -21 -16 -8 -22 -6 -30
7 -6 10 -11 13 -11 6 0 -6 5 -15 10 -18 6 -4 8 -11 4 -16 -3 -6 -11 -4 -17 5
-9 12 -16 13 -27 5 -12 -9 -12 -10 4 -5 15 5 17 2 13 -14 -3 -11 0 -23 5 -27
6 -3 8 -1 5 4 -4 6 0 13 7 16 17 7 42 -18 27 -27 -5 -3 -12 -1 -14 4 -3 6 -4
5 -3 -1 1 -7 9 -13 17 -15 7 -1 23 -5 34 -9 14 -4 12 -2 -5 9 -14 8 -19 15
-12 16 6 0 12 5 12 11 0 5 -4 7 -10 4 -6 -4 -7 1 -4 12 4 14 3 15 -4 4 -5 -7
-12 -9 -15 -4 -4 6 4 15 17 21 21 9 23 8 19 -9 -3 -11 0 -19 6 -19 7 0 9 5 5
12 -5 7 -3 8 5 4 9 -6 8 -13 -5 -27 -9 -10 -12 -19 -6 -19 6 0 14 5 17 10 3 5
14 10 23 9 14 0 13 -2 -3 -9 -11 -5 -15 -9 -10 -10 6 0 -3 -11 -19 -24 -20
-17 -25 -26 -16 -31 8 -5 11 -4 7 1 -3 5 8 17 24 27 17 9 27 12 24 7 -3 -6 -1
-10 5 -10 7 0 9 -8 4 -22 -6 -21 -5 -22 12 -8 15 11 16 11 7 0 -19 -21 -15
-32 6 -18 11 7 17 16 14 22 -4 5 -1 6 7 1 10 -6 7 -13 -11 -27 l-24 -19 24 6
c16 5 21 4 17 -4 -4 -6 -14 -11 -22 -11 -8 0 -12 -5 -9 -10 4 -7 13 -7 26 0
10 6 19 7 18 3 -3 -12 13 -47 25 -56 6 -4 1 -6 -12 -4 -13 2 -27 9 -31 16 -6
10 -10 9 -14 -3 -3 -8 -2 -18 3 -21 5 -3 7 -12 4 -20 -4 -8 -9 -13 -13 -11 -4
3 -8 -4 -8 -15 -1 -10 3 -19 8 -19 6 0 8 4 4 9 -3 5 -1 12 4 15 5 4 13 2 16
-4 5 -8 11 -7 21 1 8 6 14 8 14 4 0 -4 7 -2 15 5 15 12 21 3 16 -24 -3 -15 21
-36 33 -29 6 3 8 3 4 -1 -11 -12 29 -49 45 -43 16 6 17 -16 2 -30 -4 -4 -5 -2
-1 5 5 8 0 12 -15 12 -19 0 -20 -2 -8 -17 10 -11 10 -14 2 -9 -7 4 -13 4 -13
-1 0 -4 14 -15 32 -22 18 -8 27 -16 20 -19 -9 -3 -9 -9 -1 -24 6 -11 8 -22 5
-26 -3 -3 -6 0 -6 7 0 7 -5 9 -11 6 -6 -5 -4 -12 7 -20 16 -11 16 -13 -1 -22
-16 -9 -15 -11 8 -11 15 1 27 5 27 10 0 5 -4 7 -9 3 -10 -6 -7 27 3 44 4 5 0
12 -6 14 -10 4 -10 6 0 6 7 1 11 5 8 9 -3 5 1 9 9 9 11 0 12 -4 4 -14 -6 -7
-8 -13 -5 -13 4 0 2 -9 -4 -19 -7 -13 -7 -22 0 -26 5 -3 10 -1 10 6 0 7 6 4
14 -6 8 -11 11 -26 8 -35 -4 -12 -2 -13 9 -2 7 6 17 12 23 12 5 0 2 -6 -8 -13
-18 -13 -17 -15 9 -35 21 -17 25 -25 16 -35 -15 -19 -2 -29 16 -12 8 8 19 15
25 15 6 0 0 -8 -12 -18 -20 -16 -21 -19 -7 -25 12 -4 17 -1 18 11 0 11 2 12 6
4 3 -7 -1 -19 -7 -27 -15 -18 1 -20 19 -2 11 10 13 9 7 -1 -4 -7 -25 -21 -47
-32 -43 -22 -47 -27 -24 -27 8 0 15 4 15 9 0 15 15 8 28 -12 12 -19 11 -20
-15 -15 -25 5 -26 4 -6 -4 15 -7 21 -16 18 -28 -3 -10 0 -8 6 5 7 12 16 22 21
22 4 0 8 5 8 11 0 5 -4 8 -9 4 -6 -3 -15 3 -20 13 -10 19 -6 21 42 13 5 0 7
-7 4 -13 -2 -7 3 -22 12 -33 9 -12 10 -15 1 -7 -19 16 -35 16 -21 -1 15 -19 6
-55 -21 -86 -19 -21 -19 -23 -2 -9 15 13 23 15 31 7 7 -7 17 -8 28 -1 16 8 15
11 -6 26 -15 10 -18 16 -9 16 12 0 13 2 1 9 -9 6 -10 11 -2 15 6 4 11 2 11 -4
0 -6 5 -8 13 -4 7 5 6 0 -3 -11 -14 -17 -13 -18 2 -12 13 4 15 2 11 -10 -5
-12 -3 -14 8 -8 12 8 12 6 0 -8 -16 -20 -2 -23 19 -4 11 9 11 8 0 -7 -14 -18
-13 -19 3 -13 16 6 16 4 3 -22 -9 -16 -12 -32 -8 -36 4 -5 1 -5 -6 -1 -7 4
-10 12 -7 17 4 5 1 9 -4 9 -19 0 -12 -17 19 -50 16 -18 27 -36 24 -41 -3 -5 1
-6 8 -4 9 4 14 -2 15 -16 2 -16 -1 -18 -12 -9 -12 10 -12 7 -2 -14 8 -17 13
-21 15 -11 2 8 8 15 13 15 12 0 11 -7 -2 -32 -6 -12 -7 -18 -1 -14 5 3 12 -1
16 -9 3 -8 0 -15 -6 -15 -6 0 -8 -3 -5 -7 4 -3 15 1 26 11 17 16 19 16 24 -4
4 -16 2 -20 -9 -16 -8 3 -14 1 -14 -4 0 -6 6 -10 13 -10 17 0 60 -40 52 -48
-3 -4 -11 0 -16 8 -9 13 -10 13 -6 -1 3 -9 0 -23 -6 -30 -10 -11 -9 -11 6 0
21 16 49 -1 40 -25 -3 -8 1 -14 8 -14 7 0 9 3 6 7 -4 3 -1 13 6 21 10 13 9 14
-2 7 -10 -6 -12 -4 -6 5 6 9 4 11 -5 5 -8 -5 -11 -4 -7 2 4 6 -4 22 -18 37
-13 14 -20 26 -15 26 6 0 10 4 10 10 0 5 -4 9 -9 7 -5 -1 -9 2 -9 6 0 5 -13
22 -28 38 -15 16 -24 29 -18 29 5 0 1 5 -9 11 -9 6 -14 15 -11 21 4 6 3 8 -4
4 -6 -4 -9 3 -7 19 3 34 12 42 28 25 7 -8 8 -11 1 -7 -16 9 -25 -18 -12 -31 6
-6 17 -8 24 -5 8 3 14 0 14 -7 0 -6 -5 -8 -11 -4 -7 4 -10 1 -7 -7 3 -8 14
-13 24 -11 18 2 18 2 1 -9 -18 -10 -18 -12 3 -31 25 -23 39 -18 15 5 -14 14
-14 16 2 14 14 -1 18 -10 17 -41 0 -46 5 -64 15 -48 4 7 12 8 21 2 13 -8 12
-10 -2 -10 -10 0 -18 -5 -18 -11 0 -5 5 -7 12 -3 6 4 8 3 4 -4 -3 -6 1 -15 11
-20 15 -9 15 -12 3 -29 -12 -15 -12 -16 0 -5 19 17 31 15 28 -4 -2 -10 3 -19
10 -21 6 -3 10 1 9 9 -2 7 -2 10 0 5 3 -4 9 -5 13 -2 5 3 12 0 16 -6 4 -7 3
-10 -2 -6 -5 3 -18 -1 -29 -9 -10 -8 -17 -14 -14 -15 2 0 12 -2 22 -4 9 -2 17
1 17 6 0 5 5 9 12 9 6 0 8 -3 5 -7 -11 -11 14 -32 31 -26 14 4 15 3 2 -5 -9
-7 -19 -7 -26 -2 -6 6 -14 7 -17 3 -4 -3 1 -12 11 -19 13 -9 20 -10 32 -1 13
10 13 10 2 -5 -8 -10 -9 -19 -3 -22 5 -3 11 0 14 6 2 7 8 9 13 5 5 -4 3 -12
-4 -16 -10 -6 -10 -11 3 -21 12 -10 15 -10 15 4 0 19 16 21 26 4 5 -7 3 -8 -6
-3 -9 6 -12 4 -8 -7 10 -25 -7 -42 -28 -29 -11 6 -13 11 -6 11 7 0 10 5 6 11
-4 8 -9 7 -14 -2 -9 -14 -2 -41 10 -34 4 2 15 -4 25 -15 13 -14 14 -20 5 -20
-7 0 -10 -3 -6 -7 4 -5 13 -1 19 7 14 18 60 23 54 6 -2 -6 -11 -10 -20 -8 -8
1 -18 -2 -22 -8 -7 -12 23 -9 44 4 11 7 13 5 8 -7 -17 -41 -17 -50 -1 -22 16
28 18 28 26 10 8 -18 8 -18 4 2 -3 17 1 23 13 23 10 0 23 10 29 22 6 13 11 17
11 11 1 -7 -7 -21 -17 -31 -18 -18 -18 -19 10 -31 16 -7 32 -11 35 -7 3 3 19
-2 35 -10 21 -11 28 -12 22 -3 -5 9 -2 11 9 6 10 -4 14 -2 11 7 -3 7 -11 13
-19 13 -8 0 -12 -4 -9 -9 8 -12 -10 -10 -29 4 -15 12 -14 15 5 38 14 16 19 19
15 7 -7 -19 8 -24 17 -4 3 6 3 1 -1 -13 -5 -21 -4 -23 9 -13 8 7 18 10 21 6 4
-3 7 -2 7 3 0 6 -5 15 -11 21 -8 8 -7 13 2 18 7 5 10 4 6 -2 -4 -6 0 -16 8
-23 21 -18 19 -30 -6 -25 -17 4 -19 2 -9 -11 9 -10 16 -11 26 -4 9 8 15 6 24
-7 11 -17 11 -17 6 1 -5 14 -2 17 9 12 10 -3 13 -2 10 5 -4 6 -13 8 -20 5 -8
-3 -12 2 -11 12 2 9 9 18 17 20 12 3 12 2 0 -6 -13 -9 1 -18 42 -28 4 -1 10
-2 15 -3 4 -1 -6 -8 -23 -16 -16 -7 -25 -14 -20 -14 6 -1 23 6 39 14 25 13 27
13 22 -1 -3 -8 -2 -13 3 -10 5 3 11 15 14 26 4 17 2 18 -15 9 -14 -7 -18 -8
-14 -1 4 7 -1 9 -14 7 -11 -2 -23 2 -26 8 -4 7 -4 9 1 5 4 -4 15 -3 22 4 11 9
16 9 23 -1 4 -8 13 -10 19 -6 9 5 7 11 -6 22 -14 12 -12 11 9 -1 35 -21 44
-20 27 2 -13 16 -13 16 5 2 18 -14 18 -13 12 10 -6 23 -6 23 5 5 7 -11 17 -23
22 -26 12 -8 47 1 47 12 0 12 -17 11 -25 -1 -8 -13 -25 -3 -25 13 0 7 4 6 10
-3 8 -13 14 -8 12 10 0 3 11 5 26 5 15 -1 32 2 38 7 6 4 11 2 11 -7 0 -8 -4
-12 -9 -9 -15 9 -8 -3 9 -17 14 -12 16 -12 8 0 -6 11 -3 13 11 9 14 -4 20 0
20 13 0 13 -3 15 -13 7 -9 -7 -13 -7 -13 0 0 12 29 24 40 17 5 -3 8 -11 6 -18
-1 -7 -1 -9 1 -4 3 4 8 5 12 3 4 -3 8 1 8 9 0 8 -4 12 -8 10 -16 -10 -17 24
-1 37 15 12 16 11 3 -4 -8 -11 -9 -18 -3 -18 6 0 15 8 21 17 8 14 12 15 25 4
9 -7 14 -16 12 -20 -3 -4 4 -12 14 -19 14 -9 21 -9 26 0 4 7 3 8 -4 4 -7 -4
-18 6 -27 25 -9 17 -12 28 -7 25 6 -3 12 -3 15 1 2 5 2 2 0 -5 -1 -7 1 -10 7
-7 5 3 14 -4 20 -16 7 -11 14 -18 17 -15 3 3 0 12 -7 21 -7 8 -11 15 -9 16 37
7 40 7 35 -9 -4 -10 2 -6 12 7 19 23 49 22 36 -2 -4 -7 -1 -6 7 2 11 10 11 15
2 18 -19 7 -16 21 7 33 16 9 20 8 20 -5 0 -10 -5 -13 -12 -9 -7 5 -8 3 -3 -5
12 -20 28 4 20 29 -5 16 -10 19 -18 11 -14 -14 -27 -14 -27 0 0 5 4 8 9 4 5
-3 12 -1 15 4 4 5 14 8 24 6 21 -3 64 34 55 48 -3 6 -1 7 6 3 9 -6 9 -11 0
-22 -8 -10 -8 -14 -1 -14 6 0 9 -8 6 -17 -5 -15 -4 -15 4 -3 6 8 8 18 6 22 -3
4 2 8 10 8 9 0 15 -3 13 -7 -2 -9 6 -13 25 -13 7 0 2 7 -10 16 -25 18 -28 30
-8 37 8 3 26 -5 41 -19 14 -13 31 -24 38 -23 7 0 2 5 -10 11 -23 11 -32 48
-12 48 5 0 8 -4 5 -9 -3 -5 1 -15 10 -22 12 -10 15 -10 12 1 -2 7 3 15 11 18
8 2 11 0 7 -6 -3 -6 -2 -13 3 -17 6 -3 8 3 6 15 -2 11 1 22 6 25 11 7 2 25
-12 25 -5 0 -9 -5 -9 -11 0 -5 5 -7 12 -3 7 4 8 3 4 -5 -4 -6 -12 -9 -17 -6
-5 4 -9 1 -9 -6 0 -7 -3 -10 -6 -7 -10 11 17 50 31 45 7 -3 18 0 24 6 11 11
10 -5 -3 -48 -5 -16 -4 -15 5 2 8 16 19 22 33 19 16 -3 22 1 22 14 0 10 -6 16
-13 13 -7 -3 -10 -10 -6 -17 3 -6 2 -8 -2 -3 -13 11 -14 47 -1 39 6 -3 18 -7
26 -7 9 0 14 -8 13 -20 -1 -11 0 -15 3 -8 3 7 13 9 22 6 13 -4 14 -3 4 5 -8 5
-13 13 -12 18 1 4 -7 12 -17 16 -12 6 -9 6 10 3 17 -4 26 -2 23 4 -4 5 -1 13
5 16 15 10 24 -2 11 -17 -7 -9 -6 -17 5 -27 13 -12 14 -11 8 10 -7 22 -7 23
10 9 11 -9 16 -10 11 -2 -4 6 -2 12 3 12 6 0 11 -4 11 -10 0 -5 5 -10 11 -10
8 0 7 5 -1 15 -7 9 -19 14 -27 11 -7 -3 -13 -1 -13 4 0 14 34 12 49 -3 8 -6
11 -7 8 -2 -3 6 6 16 19 22 23 11 24 10 19 -10 -5 -19 -5 -20 5 -4 18 27 3 39
-30 22 -25 -13 -29 -13 -41 3 -12 15 -12 16 2 4 14 -10 18 -10 23 4 3 9 13 14
20 11 19 -7 68 31 60 45 -4 6 -2 8 4 4 5 -3 12 -2 14 4 2 6 9 1 15 -9 8 -13 9
-22 3 -26 -6 -3 -10 2 -10 11 0 10 -3 14 -7 10 -5 -4 -8 -13 -8 -19 0 -7 -6
-12 -12 -12 -7 0 -13 -3 -13 -7 0 -5 0 -13 0 -19 0 -6 9 -1 21 12 l20 24 -5
-25 c-3 -14 -3 -19 0 -12 3 6 11 9 16 6 7 -4 8 -2 4 5 -12 20 13 42 34 31 28
-15 36 -12 14 6 -19 15 -19 15 3 11 15 -3 20 -1 16 9 -4 11 -11 11 -36 -3 -30
-15 -31 -15 -18 0 7 10 21 17 30 17 14 0 14 2 1 11 -13 9 -12 10 2 5 10 -3 22
2 27 12 6 10 11 12 11 5 0 -7 5 -12 12 -10 20 4 36 21 30 32 -3 6 3 3 13 -5
17 -14 18 -13 12 3 -4 10 -3 16 2 12 5 -3 13 -1 16 5 5 8 11 8 20 0 7 -6 21
-7 30 -3 14 5 16 3 10 -8 -5 -8 3 -4 17 9 20 18 27 20 32 10 3 -7 3 -3 0 10
-4 15 -1 22 10 22 10 0 13 -6 10 -15 -4 -8 -1 -15 6 -15 6 0 8 5 5 10 -3 6 -1
10 4 10 6 0 11 -5 11 -12 0 -6 3 -9 6 -5 3 3 0 15 -8 26 -8 12 -17 19 -20 16
-3 -3 -11 3 -19 12 -13 16 -12 17 4 4 13 -10 17 -11 17 -1 0 7 9 1 21 -14 11
-14 28 -25 37 -25 15 1 15 2 -1 6 -10 3 -14 9 -10 16 4 7 8 19 8 27 0 8 7 15
15 15 8 0 21 4 28 9 8 5 18 4 23 -1 9 -9 -1 -13 -43 -14 -21 0 -24 -19 -3 -19
7 0 19 -8 24 -17 6 -11 11 -13 11 -5 0 7 4 10 10 7 6 -4 7 1 3 11 -5 13 -3 15
7 9 8 -5 11 -4 7 2 -7 11 16 36 25 28 3 -3 11 2 19 12 8 9 9 14 2 10 -6 -4
-15 -2 -19 4 -4 8 -3 9 4 5 13 -8 16 5 5 20 -5 5 2 -2 14 -16 23 -25 31 -46
14 -35 -5 3 -12 2 -15 -3 -2 -4 6 -8 19 -8 19 0 22 3 15 16 -6 11 -3 20 11 28
20 13 26 3 9 -14 -8 -8 -5 -15 7 -25 16 -12 17 -12 6 2 -14 17 -8 29 14 29 9
0 11 -5 7 -12 -4 -7 -3 -9 2 -5 11 10 14 58 2 51 -4 -3 -6 -10 -3 -15 4 -5 2
-9 -4 -9 -5 0 -13 4 -16 10 -4 6 -17 3 -33 -7 -15 -9 -24 -13 -20 -8 4 4 3 14
-3 22 -9 9 -8 13 0 13 6 0 11 -4 11 -10 0 -5 4 -10 10 -10 5 0 9 3 9 8 -1 4
-1 14 0 22 1 12 4 12 12 -2 15 -27 32 -22 19 5 -11 21 -10 21 4 3 9 -11 16
-16 16 -10 0 5 7 1 14 -9 14 -18 14 -18 20 1 6 18 36 27 36 10 0 -4 5 -8 11
-8 8 0 9 4 0 13 -6 8 -7 18 -3 23 4 4 -1 2 -10 -5 -10 -7 -18 -10 -18 -5 0 5
-7 0 -15 -10 -8 -11 -15 -15 -15 -9 0 7 7 18 15 26 8 8 11 19 7 23 -4 5 0 4 7
-3 11 -10 17 -9 28 5 8 9 12 12 9 5 -8 -15 4 -44 15 -37 14 8 11 26 -3 19 -7
-4 -3 2 10 12 16 14 20 21 11 30 -8 8 -7 13 2 18 7 5 10 4 5 -3 -3 -6 -1 -14
5 -18 6 -3 15 0 20 7 7 11 9 11 9 1 0 -7 5 -10 12 -6 7 4 8 3 4 -5 -4 -6 -12
-8 -18 -5 -6 4 -8 2 -5 -3 4 -6 -1 -10 -9 -9 -9 0 -18 -7 -20 -17 -1 -11 0
-16 3 -13 4 3 13 0 22 -6 9 -7 7 -2 -4 11 -17 20 -17 23 -3 18 9 -3 22 0 28 8
11 13 25 13 65 0 16 -5 15 -4 -3 7 -12 8 -20 17 -16 21 4 4 14 1 22 -6 12 -9
11 -6 -2 15 -11 17 -13 28 -7 33 10 6 15 0 13 -17 -1 -3 6 -12 16 -20 15 -12
16 -11 3 5 -15 20 -2 23 18 5 11 -10 13 -10 7 0 -9 15 -1 15 25 2 10 -6 19 -8
19 -6 0 3 -14 13 -31 22 -23 11 -29 12 -23 2 6 -10 4 -10 -9 1 -9 7 -17 19
-17 25 0 6 5 4 10 -4 5 -8 10 -12 10 -8 0 4 11 3 24 -2 17 -6 30 -4 47 8 21
15 22 15 16 -4 -7 -19 -7 -19 8 0 8 11 15 16 15 10 0 -5 7 -1 15 10 8 10 21
16 29 13 8 -3 20 1 26 8 7 8 16 13 20 10 5 -3 6 3 4 12 -2 10 3 27 11 37 13
17 17 18 28 6 10 -10 9 -11 -2 -5 -10 6 -12 4 -6 -5 6 -9 4 -11 -5 -5 -9 6
-11 4 -5 -5 6 -9 4 -11 -6 -6 -8 4 -5 0 6 -9 11 -9 19 -22 17 -28 -2 -7 0 -8
4 -4 12 12 14 38 2 31 -6 -4 -9 -1 -6 7 6 18 44 18 40 0 -1 -7 2 -10 8 -6 8 5
8 11 0 20 -8 9 -8 15 0 20 5 3 10 2 10 -3 0 -5 7 -9 15 -9 8 0 13 3 10 5 -3 3
0 11 6 19 6 7 9 22 6 33 -3 13 -1 18 5 13 6 -3 17 2 25 12 7 11 13 15 13 10 0
-5 -8 -17 -17 -27 -16 -17 -16 -20 0 -35 9 -10 17 -12 17 -6 0 6 -6 13 -12 16
-7 2 -10 8 -6 12 4 4 13 3 20 -1 19 -12 39 -14 32 -3 -3 5 2 9 11 9 11 0 15 5
12 14 -3 8 9 30 27 49 26 28 36 33 50 25 16 -9 17 -7 12 13 -6 20 -5 21 4 7 5
-9 7 -23 4 -32 -5 -14 -7 -14 -21 0 -13 13 -17 13 -24 2 -6 -9 -3 -14 9 -17 9
-2 20 -8 24 -15 4 -6 8 -7 8 -1 0 6 5 17 10 25 8 13 11 12 25 -5 14 -18 14
-16 0 13 -19 39 -12 54 13 27 12 -13 13 -16 2 -10 -12 6 -13 5 -3 -5 18 -19
30 -3 15 20 -7 11 -12 23 -12 27 0 5 5 0 11 -9 5 -10 16 -15 24 -12 9 4 15 0
15 -9 0 -9 4 -18 9 -21 4 -3 6 6 3 19 -4 22 -12 29 -33 27 -3 -1 -6 5 -6 13 0
10 4 11 18 2 14 -9 21 -6 38 14 11 13 20 20 21 16 0 -5 -7 -15 -15 -23 -12
-13 -12 -17 6 -35 11 -11 17 -25 13 -32 -4 -7 -3 -9 1 -4 11 9 14 48 4 42 -4
-3 -10 2 -13 11 -3 8 -2 12 4 9 10 -6 14 7 11 35 -2 12 0 12 7 2 5 -8 12 -13
16 -13 3 1 5 -2 4 -6 -2 -5 -6 -7 -10 -6 -5 2 -8 -1 -8 -6 0 -4 18 -8 40 -7
22 0 40 5 40 10 0 4 -7 6 -15 2 -15 -5 -36 22 -34 46 0 7 4 3 10 -10 5 -13 14
-20 19 -17 6 4 17 1 25 -5 11 -10 15 -10 15 -1 0 7 5 9 12 5 7 -5 8 -3 4 5 -5
7 0 21 10 32 10 11 12 19 5 19 -6 0 -14 -7 -17 -15 -4 -8 -10 -12 -15 -9 -5 3
-6 -2 -3 -10 3 -9 2 -16 -3 -16 -19 0 -11 38 9 43 11 3 17 10 14 15 -3 6 2 8
14 5 23 -6 23 -8 11 -32 -6 -11 -6 -23 0 -32 8 -12 10 -12 8 1 -2 8 4 31 12
50 12 28 16 31 22 17 5 -13 3 -16 -6 -11 -6 4 -9 4 -5 -1 4 -4 3 -16 -2 -26
-7 -12 -6 -20 2 -25 6 -4 8 -3 4 4 -3 5 6 25 21 44 19 22 21 28 8 18 -11 -8
-17 -11 -13 -6 4 5 3 18 -3 30 -10 20 -10 20 5 2 9 -11 16 -16 16 -12 0 5 12
0 28 -10 23 -15 25 -15 13 -1 -8 10 -9 17 -3 17 6 0 16 -8 21 -17 6 -10 11
-13 11 -8 0 6 -5 16 -12 23 -16 16 4 16 22 0 12 -11 12 -10 2 3 -6 9 -8 19 -4
24 4 4 -7 1 -23 -8 -29 -14 -31 -14 -32 3 -1 10 6 25 15 32 15 12 16 11 3 -5
-8 -9 -11 -21 -7 -24 4 -4 11 -1 16 7 6 8 10 11 10 6 0 -5 6 -3 14 4 8 6 12
19 9 28 -4 15 -3 15 6 2 6 -8 11 -11 11 -6 0 4 12 1 26 -9 15 -10 23 -12 19
-4 -6 9 -3 11 8 6 9 -3 19 -1 23 5 4 6 3 8 -4 4 -6 -3 -17 1 -25 9 -21 21 -33
19 -16 -2 13 -16 12 -17 -3 -4 -19 14 -15 33 5 30 27 -3 36 2 31 19 -4 11 -1
10 8 -4 12 -20 14 -20 28 -6 13 14 12 15 -3 9 -9 -3 -17 -2 -17 3 0 15 26 35
79 60 74 36 71 62 -14 145 -70 69 -69 68 -66 182 3 96 27 177 76 258 49 81 71
102 133 132 89 42 92 38 -207 322 -48 46 -342 327 -466 446 -23 22 -118 112
-210 200 -92 88 -200 192 -240 230 -40 39 -142 135 -225 215 -84 80 -172 163
-195 185 -217 208 -417 400 -464 444 -31 29 -139 133 -241 231 -102 98 -205
196 -230 220 -25 23 -65 61 -90 85 -41 38 -48 42 -75 33z m-2920 -1449 c-4 -5
-12 -9 -18 -8 -9 0 -8 2 1 6 6 2 9 10 6 15 -4 7 -2 8 5 4 6 -4 9 -12 6 -17z
m21 -67 c0 -10 -6 -19 -13 -19 -8 0 -9 6 -2 19 5 10 11 18 12 18 2 0 3 -8 3
-18z m17 -76 c4 -10 1 -13 -9 -9 -15 6 -19 23 -5 23 5 0 11 -7 14 -14z m-15
-43 c6 -2 12 2 12 9 0 6 3 8 6 5 4 -4 1 -13 -6 -22 -10 -12 -16 -13 -26 -4 -8
6 -14 17 -14 23 0 7 3 7 8 1 4 -5 13 -11 20 -12z m77 -61 c-3 -3 -11 0 -18 7
-9 10 -8 11 6 5 10 -3 15 -9 12 -12z m90 -152 c-3 -5 -14 -10 -23 -9 -14 0
-13 2 3 9 27 11 27 11 20 0z m-45 -20 c0 -5 -5 -10 -11 -10 -5 0 -7 5 -4 10 3
6 8 10 11 10 2 0 4 -4 4 -10z m80 -164 c0 -8 -4 -17 -8 -20 -4 -2 -8 4 -8 15
0 10 4 19 8 19 4 0 8 -6 8 -14z m37 8 c-3 -3 -12 -4 -19 -1 -8 3 -5 6 6 6 11
1 17 -2 13 -5z m43 -44 c0 -6 -9 -2 -20 7 -11 10 -20 19 -20 21 0 1 9 -2 20
-8 11 -6 20 -15 20 -20z m34 -38 c3 -5 -1 -9 -9 -9 -8 0 -12 4 -9 9 3 4 7 8 9
8 2 0 6 -4 9 -8z m-37 -27 c-4 -8 4 -22 18 -34 24 -18 35 -39 15 -26 -5 3 -10
2 -10 -3 0 -17 13 -22 28 -9 13 9 14 9 8 0 -4 -7 -3 -13 1 -13 5 0 15 6 23 13
8 6 7 3 -3 -9 -9 -11 -15 -23 -12 -26 3 -2 -5 -4 -18 -3 -12 1 -22 7 -22 14 0
6 -7 16 -15 21 -8 5 -11 10 -6 10 5 0 3 7 -4 15 -7 8 -15 13 -19 11 -4 -3 -13
-1 -21 4 -12 7 -11 12 4 29 22 24 41 28 33 6z m33 -15 c0 -5 -2 -10 -4 -10 -3
0 -8 5 -11 10 -3 6 -1 10 4 10 6 0 11 -4 11 -10z m25 1 c3 -5 2 -12 -3 -15 -5
-3 -9 1 -9 9 0 17 3 19 12 6z m61 -116 c1 -8 -2 -15 -6 -15 -5 0 -8 9 -7 20 1
21 10 18 13 -5z m43 -59 c-2 -2 -15 -9 -29 -15 -24 -11 -24 -11 -6 3 16 13 49
24 35 12z m-4 -36 c3 -6 -1 -7 -9 -4 -18 7 -21 14 -7 14 6 0 13 -4 16 -10z
m-55 -32 c0 -6 -6 -5 -15 2 -8 7 -15 14 -15 16 0 2 7 1 15 -2 8 -4 15 -11 15
-16z m78 -20 c-2 -7 3 -12 10 -10 6 1 12 -2 12 -8 0 -5 -4 -10 -9 -10 -5 0
-12 -7 -15 -16 -5 -14 -4 -15 9 -4 10 8 15 9 15 1 0 -6 -4 -11 -9 -11 -5 0
-12 -7 -15 -16 -6 -15 -4 -15 20 1 15 9 24 12 20 7 -3 -6 4 -14 15 -17 20 -7
20 -8 6 -17 -10 -5 -17 -14 -17 -20 0 -6 7 -5 18 3 9 7 14 9 10 5 -4 -5 1 -21
11 -35 31 -46 33 -51 16 -44 -15 5 -15 3 -4 -15 l14 -22 13 25 c7 14 15 25 18
25 2 0 0 -8 -5 -19 -6 -10 -7 -21 -4 -25 3 -3 0 -6 -7 -6 -11 0 -11 -3 -2 -12
10 -10 15 -10 23 2 9 12 10 11 5 -4 -4 -12 1 -27 15 -43 13 -12 20 -25 17 -28
-12 -12 -48 -13 -50 -2 0 7 -2 17 -2 22 -3 18 -17 35 -26 30 -5 -3 -11 -1 -14
4 -4 5 -2 12 4 16 6 3 -2 17 -18 31 -15 14 -22 23 -16 20 7 -3 17 1 23 8 10
11 8 17 -6 25 -10 6 -14 11 -10 11 5 0 5 5 1 11 -4 8 -9 7 -15 -2 -7 -11 -9
-11 -9 -1 0 7 -5 10 -11 7 -6 -4 -10 -1 -8 6 4 33 -1 42 -15 30 -18 -15 -26
-3 -22 32 3 21 0 25 -9 17 -9 -8 -12 -5 -11 12 0 13 8 28 16 35 19 16 21 16
18 1z m56 -16 c3 -5 -1 -9 -9 -9 -8 0 -12 4 -9 9 3 4 7 8 9 8 2 0 6 -4 9 -8z
m62 -138 c1 -9 0 -13 -4 -10 -3 4 -7 14 -8 22 -1 9 0 13 4 10 3 -4 7 -14 8
-22z m108 -102 c3 -5 -1 -9 -9 -9 -8 0 -12 4 -9 9 3 4 7 8 9 8 2 0 6 -4 9 -8z
m-7 -68 c-3 -3 -12 -4 -19 -1 -8 3 -5 6 6 6 11 1 17 -2 13 -5z m26 -59 c-3 -9
-8 -14 -10 -11 -3 3 -2 9 2 15 9 16 15 13 8 -4z m57 -19 c0 -2 -6 -9 -14 -15
-11 -9 -16 -9 -22 0 -4 7 -3 9 4 5 6 -3 13 -2 17 4 6 10 15 14 15 6z m35 -96
c3 -5 1 -10 -4 -10 -6 0 -11 5 -11 10 0 6 2 10 4 10 3 0 8 -4 11 -10z m-19
-36 c-3 -7 -1 -16 5 -19 5 -4 7 -10 4 -15 -3 -4 2 -11 10 -14 11 -4 15 0 13
12 -2 9 -7 20 -11 23 -5 3 -2 9 5 12 16 6 19 -39 4 -62 -7 -11 -5 -13 7 -8 9
3 19 2 22 -4 4 -5 11 -7 16 -4 5 4 9 2 9 -4 0 -5 -9 -13 -20 -16 -11 -4 -18
-11 -14 -16 3 -6 12 -5 22 3 16 12 16 11 2 -6 -14 -18 -13 -19 2 -13 10 3 20
1 24 -5 4 -6 3 -8 -3 -5 -6 4 -13 1 -16 -6 -3 -9 3 -13 17 -13 13 1 20 -4 18
-13 -2 -8 3 -11 11 -8 7 3 14 -1 14 -9 0 -7 -4 -11 -9 -8 -5 3 -19 -2 -30 -13
-12 -10 -18 -13 -15 -6 4 6 3 14 -3 18 -6 4 -8 11 -5 16 4 5 1 9 -5 9 -7 0
-10 6 -7 14 7 17 -16 39 -28 28 -5 -4 -4 -1 0 7 6 11 4 13 -8 8 -13 -5 -16 -1
-13 16 2 13 -6 28 -18 39 -12 9 -17 17 -12 18 5 0 2 7 -5 16 -16 20 -21 46 -6
37 7 -4 8 0 3 12 -5 15 -4 16 9 5 9 -7 14 -19 11 -26z m284 -344 c0 -5 -5 -10
-11 -10 -5 0 -7 5 -4 10 3 6 8 10 11 10 2 0 4 -4 4 -10z m-3 -35 c0 -8 -4 -12
-9 -9 -5 3 -6 10 -3 15 9 13 12 11 12 -6z m126 -258 c17 3 15 0 -8 -13 -33
-19 -40 -19 -40 -1 0 6 -5 18 -9 26 -7 11 -4 11 13 -1 12 -9 32 -14 44 -11z
m3822 4 c3 -5 2 -12 -3 -15 -5 -3 -9 1 -9 9 0 17 3 19 12 6z m-3776 -15 c9
-11 9 -16 -1 -22 -7 -4 -10 -4 -6 1 4 4 3 14 -3 22 -6 7 -9 13 -6 13 2 0 10
-6 16 -14z m6 -46 c3 -5 1 -10 -4 -10 -6 0 -11 5 -11 10 0 6 2 10 4 10 3 0 8
-4 11 -10z m3465 -60 c0 -5 -10 -15 -22 -21 l-23 -12 20 21 c23 24 25 25 25
12z m-39 -52 c6 -13 8 -20 4 -16 -4 4 -13 0 -20 -9 -8 -11 -14 -13 -19 -5 -4
7 -2 12 4 12 6 0 8 5 4 12 -5 7 -3 8 6 3 10 -6 12 -4 7 8 -9 25 0 21 14 -5z
m-3344 -2 c0 -8 -6 -12 -14 -9 -7 3 -10 9 -7 14 8 14 21 11 21 -5z m3238 -56
c4 0 2 6 -4 13 -8 10 -7 14 3 14 8 0 13 -7 11 -16 -1 -9 -9 -16 -17 -16 -8 0
-22 -6 -30 -12 -11 -10 -16 -8 -26 8 -7 11 -8 19 -2 19 5 0 10 -4 10 -10 0 -5
4 -10 9 -10 6 0 8 10 6 21 -4 20 -3 20 14 5 9 -9 21 -16 26 -16z m-3178 -35
c0 -8 -4 -12 -9 -9 -5 3 -6 10 -3 15 9 13 12 11 12 -6z m3053 -19 c0 -8 -7
-19 -15 -26 -11 -9 -15 -9 -15 -1 0 7 -4 9 -10 6 -5 -3 -10 -1 -10 4 0 10 14
15 34 12 5 -1 6 5 2 14 -3 9 -2 13 4 10 6 -3 10 -12 10 -19z m-67 -15 c6 -23
-3 -37 -23 -36 -8 1 -21 -3 -27 -8 -9 -6 -13 -5 -13 2 0 7 -5 9 -10 6 -6 -4
-8 -11 -5 -16 3 -5 -1 -6 -10 -3 -14 6 -14 8 2 19 10 7 22 11 27 8 5 -4 15 2
23 12 7 11 13 13 13 7 0 -7 5 -12 10 -12 7 0 7 6 0 20 -6 11 -7 20 -2 20 6 0
12 -9 15 -19z m-2946 -38 c0 -9 -4 -10 -14 -2 -7 6 -13 12 -13 14 0 1 6 2 13
2 8 0 14 -6 14 -14z m2763 -35 c0 -4 -4 -8 -9 -8 -6 0 -12 4 -15 8 -3 5 1 9 9
9 8 0 15 -4 15 -9z m2 -22 c10 6 10 4 0 -9 -12 -14 -16 -14 -28 -2 -19 18 -18
31 1 15 8 -6 20 -8 27 -4z m-2685 -61 c0 -8 -4 -12 -9 -9 -5 3 -6 10 -3 15 9
13 12 11 12 -6z m2483 -15 c0 -5 -2 -10 -4 -10 -3 0 -8 5 -11 10 -3 6 -1 10 4
10 6 0 11 -4 11 -10z m-2456 -36 c3 -8 2 -12 -4 -9 -6 3 -10 10 -10 16 0 14 7
11 14 -7z m40 -2 c3 -5 -1 -9 -9 -9 -8 0 -12 4 -9 9 3 4 7 8 9 8 2 0 6 -4 9
-8z m2269 -19 c-7 -2 -13 -9 -13 -14 0 -6 5 -7 10 -4 6 3 10 1 10 -4 0 -14
-17 -14 -25 -1 -8 13 3 30 18 29 9 0 9 -2 0 -6z m-53 -23 c0 -5 -5 -10 -11
-10 -5 0 -7 5 -4 10 3 6 8 10 11 10 2 0 4 -4 4 -10z m-2203 -35 c0 -8 -4 -12
-9 -9 -5 3 -6 10 -3 15 9 13 12 11 12 -6z m2227 -10 c-4 -8 -11 -12 -16 -9 -6
4 -5 10 3 15 19 12 19 11 13 -6z m-77 -17 c-3 -8 -6 -5 -6 6 -1 11 2 17 5 13
3 -3 4 -12 1 -19z m-2207 2 c0 -5 -4 -10 -9 -10 -6 0 -13 5 -16 10 -3 6 1 10
9 10 9 0 16 -4 16 -10z m2135 0 c3 -5 1 -10 -4 -10 -6 0 -11 5 -11 10 0 6 2
10 4 10 3 0 8 -4 11 -10z m-58 -30 c1 -11 -2 -20 -7 -20 -6 0 -7 17 -1 38 3 8
7 -1 8 -18z m47 1 c3 -5 -1 -14 -8 -20 -10 -9 -16 -9 -21 -1 -4 6 -3 10 2 9
20 -3 27 2 13 11 -9 6 -10 10 -3 10 6 0 14 -4 17 -9z m-2010 -10 c3 -5 -2 -15
-12 -22 -15 -12 -16 -12 -5 2 7 9 10 19 6 22 -3 4 -4 7 0 7 3 0 8 -4 11 -9z
m-37 -15 c-7 -18 18 -40 34 -30 8 5 9 3 5 -5 -5 -7 -14 -10 -22 -7 -7 3 -16 1
-19 -4 -4 -6 1 -10 9 -10 17 0 22 -15 7 -24 -10 -6 -38 33 -36 49 2 16 17 45
22 45 3 0 3 -6 0 -14z m78 -35 c3 -5 2 -12 -3 -15 -5 -3 -9 1 -9 9 0 17 3 19
12 6z m1735 -25 c0 -2 -8 -10 -17 -17 -16 -13 -17 -12 -4 4 13 16 21 21 21 13z
m-1715 -26 c3 -5 1 -10 -4 -10 -6 0 -11 5 -11 10 0 6 2 10 4 10 3 0 8 -4 11
-10z m1622 -15 c0 -8 -4 -12 -9 -9 -4 3 -8 0 -8 -7 0 -7 -3 -9 -6 -6 -4 4 -1
13 6 22 15 19 17 19 17 0z m-1653 -87 c-4 -6 -10 -5 -15 3 -14 22 -10 33 6 19
8 -7 12 -17 9 -22z m100 4 c3 -5 -1 -9 -9 -9 -8 0 -12 4 -9 9 3 4 7 8 9 8 2 0
6 -4 9 -8z m1211 -82 c-3 -5 -12 -10 -18 -10 -7 0 -6 4 3 10 19 12 23 12 15 0z
m-1160 -40 c3 -6 -1 -7 -9 -4 -18 7 -21 14 -7 14 6 0 13 -4 16 -10z m1040 -20
c-3 -5 -12 -10 -18 -10 -7 0 -6 4 3 10 19 12 23 12 15 0z m-90 -80 c-9 -10
-24 -17 -33 -15 -9 1 -24 -2 -32 -8 -8 -6 -12 -7 -8 -3 4 5 3 15 -3 23 -9 9
-8 13 0 13 6 0 11 -6 11 -12 0 -9 4 -8 10 2 7 11 10 11 10 2 0 -7 5 -10 10 -7
6 4 7 11 4 17 -5 7 -2 8 6 3 10 -6 12 -4 7 9 -6 14 -3 15 14 5 19 -10 20 -12
4 -29z m-765 -93 c0 -8 -3 -8 -9 2 -6 9 -11 10 -15 2 -4 -6 0 -14 8 -17 20 -8
21 -21 1 -21 -8 0 -12 4 -9 9 3 4 1 8 -5 8 -5 0 -11 -6 -14 -12 -2 -8 -8 -9
-13 -4 -5 5 -4 11 4 13 6 3 12 11 12 18 0 14 20 25 33 18 4 -2 7 -10 7 -16z
m17 -19 c-3 -8 -6 -5 -6 6 -1 11 2 17 5 13 3 -3 4 -12 1 -19z m30 0 c-3 -8 -6
-5 -6 6 -1 11 2 17 5 13 3 -3 4 -12 1 -19z m30 7 c0 -8 -4 -12 -9 -9 -5 3 -6
10 -3 15 9 13 12 11 12 -6z m238 -4 c3 -5 2 -12 -3 -15 -5 -3 -9 1 -9 9 0 17
3 19 12 6z m-275 -31 c0 -5 -4 -10 -10 -10 -5 0 -10 5 -10 10 0 6 5 10 10 10
6 0 10 -4 10 -10z m86 -15 c-1 -24 -15 -33 -29 -19 -8 8 11 44 22 44 5 0 8
-11 7 -25z"/>
<path d="M661 3366 c-8 -10 -9 -16 -1 -21 5 -3 10 -3 10 1 0 4 10 -1 23 -12
l22 -19 -23 26 c-12 14 -19 29 -15 32 3 4 4 7 1 7 -3 0 -11 -6 -17 -14z"/>
<path d="M847 3076 c-4 -10 -1 -13 8 -9 8 3 12 9 9 14 -7 12 -11 11 -17 -5z"/>
<path d="M897 3005 c3 -8 9 -12 14 -9 12 7 11 11 -5 17 -10 4 -13 1 -9 -8z"/>
<path d="M965 2848 c-5 -7 -4 -10 0 -5 12 10 45 -22 39 -38 -3 -7 2 -15 10
-18 29 -11 25 10 -8 42 -26 25 -36 30 -41 19z"/>
<path d="M1166 2561 c-3 -5 2 -15 12 -22 15 -12 16 -12 5 2 -7 9 -10 19 -6 22
3 4 4 7 0 7 -3 0 -8 -4 -11 -9z"/>
<path d="M1187 2509 c7 -7 15 -10 18 -7 3 3 -2 9 -12 12 -14 6 -15 5 -6 -5z"/>
<path d="M1230 2479 c0 -5 -5 -7 -12 -3 -7 4 -8 3 -4 -4 4 -6 13 -9 21 -6 8 4
12 10 9 15 -7 12 -14 11 -14 -2z"/>
<path d="M1274 2383 c3 -21 19 -20 22 2 1 8 -4 15 -11 15 -7 0 -12 -8 -11 -17z"/>
<path d="M1993 1235 c0 -8 4 -12 9 -9 5 3 6 10 3 15 -9 13 -12 11 -12 -6z"/>
<path d="M3159 863 c-13 -16 -12 -17 4 -4 16 13 21 21 13 21 -2 0 -10 -8 -17
-17z"/>
<path d="M297 4239 c7 -7 15 -10 18 -7 3 3 -2 9 -12 12 -14 6 -15 5 -6 -5z"/>
<path d="M295 4198 c2 -10 7 -23 10 -28 3 -6 1 -10 -6 -10 -7 0 -4 -6 6 -14
11 -8 23 -12 26 -10 4 2 5 -6 2 -18 l-6 -23 20 20 20 20 -23 13 c-15 8 -21 18
-18 30 4 13 3 14 -4 4 -7 -11 -10 -11 -15 2 -4 10 -1 16 8 16 8 0 15 4 15 8 0
4 -9 8 -19 8 -13 0 -18 -6 -16 -18z"/>
<path d="M254 4182 c4 -3 14 -7 22 -8 9 -1 13 0 10 4 -4 3 -14 7 -22 8 -9 1
-13 0 -10 -4z"/>
<path d="M296 4125 c4 -8 11 -15 16 -15 6 0 5 6 -2 15 -7 8 -14 15 -16 15 -2
0 -1 -7 2 -15z"/>
<path d="M267 4119 c7 -7 15 -10 18 -7 3 3 -2 9 -12 12 -14 6 -15 5 -6 -5z"/>
<path d="M279 3992 c-13 -15 -12 -16 3 -4 13 10 17 10 21 0 4 -9 6 -9 6 -1 2
20 -16 24 -30 5z"/>
<path d="M286 3958 c3 -5 10 -6 15 -3 13 9 11 12 -6 12 -8 0 -12 -4 -9 -9z"/>
<path d="M340 3962 c0 -4 5 -13 12 -20 7 -7 8 -12 2 -12 -6 0 -11 -7 -11 -16
0 -12 5 -10 18 7 13 17 15 27 7 36 -12 15 -28 17 -28 5z"/>
<path d="M229 3943 c-13 -16 -12 -17 4 -4 9 7 17 15 17 17 0 8 -8 3 -21 -13z"/>
<path d="M315 3923 c1 -16 -2 -33 -6 -39 -5 -6 -4 -11 4 -11 7 0 13 15 13 39
1 21 -2 38 -6 38 -4 0 -6 -12 -5 -27z"/>
<path d="M361 3842 c-1 -15 -5 -21 -13 -16 -7 5 -8 3 -3 -5 10 -18 28 2 22 25
-4 15 -5 14 -6 -4z"/>
<path d="M315 3821 c-3 -5 -2 -12 3 -15 5 -3 9 1 9 9 0 17 -3 19 -12 6z"/>
<path d="M370 3762 c0 -5 7 -9 15 -9 8 0 12 4 9 9 -3 4 -9 8 -15 8 -5 0 -9 -4
-9 -8z"/>
<path d="M450 3761 c0 -7 -4 -9 -10 -6 -5 3 -10 1 -10 -4 0 -6 4 -11 9 -11 13
0 25 20 17 27 -3 4 -6 1 -6 -6z"/>
<path d="M373 3725 c0 -8 5 -13 11 -12 5 1 10 -3 11 -10 0 -6 4 -15 9 -20 6
-5 6 -2 1 6 -6 11 -4 13 8 8 24 -9 21 -4 -11 20 -20 15 -29 17 -29 8z"/>
<path d="M448 3732 c-20 -4 -24 -17 -9 -27 6 -3 14 3 20 12 6 10 11 12 11 6 0
-15 20 -18 20 -4 0 12 -21 18 -42 13z"/>
<path d="M454 3597 c-1 -30 -1 -30 9 -9 6 14 7 26 1 32 -5 5 -9 -4 -10 -23z"/>
<path d="M513 3596 c-4 -5 -1 -12 6 -14 8 -3 6 -9 -6 -19 -17 -13 -16 -13 4
-4 29 14 40 14 25 -1 -18 -18 -14 -26 13 -24 21 1 23 3 10 12 -8 6 -12 14 -8
17 3 4 -2 9 -11 13 -12 4 -14 10 -6 19 7 8 5 12 -6 12 -8 0 -18 -5 -21 -11z"/>
<path d="M478 3573 c7 -3 16 -2 19 1 4 3 -2 6 -13 5 -11 0 -14 -3 -6 -6z"/>
<path d="M513 3522 c2 -12 6 -24 10 -28 3 -4 4 4 2 16 -6 30 -16 40 -12 12z"/>
<path d="M495 3480 c-3 -5 -1 -10 4 -10 6 0 11 5 11 10 0 6 -2 10 -4 10 -3 0
-8 -4 -11 -10z"/>
<path d="M611 3364 c0 -11 3 -14 6 -6 3 7 2 16 -1 19 -3 4 -6 -2 -5 -13z"/>
<path d="M571 3347 c2 -1 13 -9 24 -17 19 -14 19 -14 6 3 -7 9 -18 17 -24 17
-6 0 -8 -1 -6 -3z"/>
<path d="M656 3243 c-6 -14 -5 -15 5 -6 7 7 10 15 7 18 -3 3 -9 -2 -12 -12z"/>
<path d="M683 3241 c-9 -15 -9 -20 0 -24 7 -3 13 5 13 19 2 29 2 29 -13 5z"/>
<path d="M723 3243 c-7 -3 -13 -9 -13 -14 0 -6 5 -7 10 -4 17 10 11 -7 -7 -22
-16 -13 -16 -13 5 -3 24 12 45 5 27 -8 -14 -10 -18 -42 -5 -42 6 0 8 5 4 12
-5 7 -2 9 8 5 9 -3 20 -1 26 5 21 21 -26 81 -55 71z m47 -55 c0 -11 -5 -16
-10 -13 -6 4 -8 11 -4 16 3 6 -2 20 -13 32 l-18 22 23 -19 c12 -11 22 -28 22
-38z"/>
<path d="M720 3080 c-9 -6 -10 -10 -3 -10 6 0 15 5 18 10 8 12 4 12 -15 0z"/>
<path d="M775 3020 c-2 -3 9 -6 25 -6 17 0 27 2 25 5 -8 7 -45 9 -50 1z"/>
<path d="M879 2935 c-1 -3 -2 -11 -3 -17 -1 -7 -8 -12 -15 -10 -7 1 -10 -2 -6
-8 5 -8 11 -8 21 1 7 6 11 16 7 22 -4 6 0 8 11 4 10 -4 15 -3 11 3 -6 10 -24
14 -26 5z"/>
<path d="M913 2865 c0 -8 4 -15 9 -15 4 0 8 4 8 9 0 6 -4 12 -8 15 -5 3 -9 -1
-9 -9z"/>
<path d="M934 2816 c1 -8 5 -18 8 -22 4 -3 5 1 4 10 -1 8 -5 18 -8 22 -4 3 -5
-1 -4 -10z"/>
<path d="M950 2758 c0 -4 4 -8 9 -8 6 0 12 4 15 8 3 5 -1 9 -9 9 -8 0 -15 -4
-15 -9z"/>
<path d="M1051 2743 c3 -19 -2 -32 -13 -36 -7 -2 -2 -2 11 0 22 4 23 2 11 -12
-12 -14 -12 -18 1 -26 18 -11 26 -11 34 1 3 6 0 13 -8 16 -15 6 -17 20 -4 40
4 7 0 15 -9 18 -20 8 -24 8 -23 -1z m34 -71 c-3 -3 -11 0 -18 7 -9 10 -8 11 6
5 10 -3 15 -9 12 -12z"/>
<path d="M999 2673 c-13 -17 -13 -17 6 -3 11 8 22 16 24 17 2 2 0 3 -6 3 -6 0
-17 -8 -24 -17z"/>
<path d="M1033 2649 c-2 -23 3 -25 10 -4 4 8 3 16 -1 19 -4 3 -9 -4 -9 -15z"/>
<path d="M1070 2596 c0 -3 9 -10 20 -16 11 -6 20 -8 20 -6 0 3 -9 10 -20 16
-11 6 -20 8 -20 6z"/>
<path d="M1116 2521 c-3 -5 2 -15 12 -22 16 -13 16 -13 2 5 -14 18 -13 19 3
13 11 -4 16 -3 12 3 -8 12 -22 13 -29 1z"/>
<path d="M1134 2458 c-3 -4 5 -5 17 -3 30 6 36 14 9 12 -12 -1 -24 -5 -26 -9z"/>
<path d="M1174 2402 c4 -3 14 -7 22 -8 9 -1 13 0 10 4 -4 3 -14 7 -22 8 -9 1
-13 0 -10 -4z"/>
<path d="M1219 2388 c-6 -19 -4 -50 4 -55 6 -3 7 -1 3 5 -4 8 0 12 11 12 17 1
17 1 0 11 -9 6 -15 14 -12 20 4 5 4 9 1 9 -3 0 -6 -1 -7 -2z"/>
<path d="M1264 2242 c4 -3 14 -7 22 -8 9 -1 13 0 10 4 -4 3 -14 7 -22 8 -9 1
-13 0 -10 -4z"/>
<path d="M1295 2200 c3 -5 8 -10 11 -10 2 0 4 5 4 10 0 6 -5 10 -11 10 -5 0
-7 -4 -4 -10z"/>
<path d="M1388 2093 c6 -2 18 -2 25 0 6 3 1 5 -13 5 -14 0 -19 -2 -12 -5z"/>
<path d="M1460 2075 c-7 -8 -9 -15 -4 -16 5 0 0 -4 -11 -9 -16 -7 -17 -9 -3
-9 12 -1 16 -8 13 -28 -2 -16 -2 -22 1 -15 9 20 30 14 43 -14 9 -21 14 -24 25
-14 11 9 17 7 26 -7 10 -17 11 -17 8 2 -2 11 -10 21 -18 21 -8 1 -21 2 -29 3
-7 0 -11 7 -8 15 3 8 -5 26 -19 39 -22 23 -23 26 -7 29 12 2 14 6 7 11 -7 4
-17 0 -24 -8z m24 -44 c17 -19 17 -19 -1 -15 -11 3 -20 12 -20 20 0 18 0 18
21 -5z"/>
<path d="M5653 2049 c-13 -13 -6 -39 9 -39 7 0 6 5 -1 13 -19 24 1 27 21 4
l19 -22 -17 28 c-19 31 -17 30 -31 16z"/>
<path d="M1486 1959 c10 -12 18 -24 16 -27 -2 -4 2 -8 10 -10 11 -3 11 -2 0 6
-8 5 -13 11 -12 13 4 10 -13 39 -23 39 -5 0 -2 -9 9 -21z"/>
<path d="M5570 1962 c0 -5 7 -9 15 -9 8 0 12 4 9 9 -3 4 -9 8 -15 8 -5 0 -9
-4 -9 -8z"/>
<path d="M5615 1941 c-3 -5 -2 -12 3 -15 5 -3 9 1 9 9 0 17 -3 19 -12 6z"/>
<path d="M1565 1872 c-3 -7 -10 -10 -16 -6 -8 5 -9 3 -4 -5 5 -9 10 -10 18 -2
6 6 16 11 21 11 6 0 5 -5 -2 -12 -17 -17 -15 -31 3 -25 8 4 17 2 20 -3 4 -6
-2 -10 -12 -10 -15 0 -16 -2 -3 -10 9 -6 17 -5 22 3 9 14 10 12 13 -28 4 -45
4 -45 15 -45 6 0 9 3 9 8 -1 4 0 9 1 12 11 30 5 49 -26 81 -25 26 -32 38 -22
42 7 3 3 4 -9 4 -12 -1 -25 -7 -28 -15z m85 -74 c0 -4 -5 -8 -11 -8 -5 0 -8 4
-5 9 7 11 -39 53 -49 44 -4 -5 -5 -2 -1 5 6 11 15 7 37 -14 16 -15 29 -31 29
-36z"/>
<path d="M5370 1856 c0 -2 8 -10 18 -17 15 -13 16 -12 3 4 -13 16 -21 21 -21
13z"/>
<path d="M1559 1808 c-5 -18 -6 -38 -1 -34 7 8 12 36 6 36 -2 0 -4 -1 -5 -2z"/>
<path d="M1587 1773 c3 -7 9 -10 14 -7 14 8 11 21 -5 21 -8 0 -12 -6 -9 -14z"/>
<path d="M5110 1775 c-7 -8 -10 -20 -7 -27 4 -9 6 -8 6 3 1 15 31 24 31 9 0
-4 7 -7 15 -7 20 0 19 2 -9 20 -21 14 -26 14 -36 2z"/>
<path d="M5190 1769 c0 -5 5 -7 10 -4 6 3 10 8 10 11 0 2 -4 4 -10 4 -5 0 -10
-5 -10 -11z"/>
<path d="M1650 1730 c-7 -5 -19 -6 -27 -3 -7 3 -13 0 -13 -5 0 -11 31 -9 50 3
6 3 10 1 10 -4 0 -6 -4 -11 -10 -11 -5 0 -10 -5 -10 -12 0 -9 3 -9 12 0 24 24
31 11 7 -14 -16 -17 -18 -23 -7 -19 17 7 31 30 32 54 1 16 -25 23 -44 11z"/>
<path d="M5115 1720 c3 -5 8 -10 11 -10 2 0 4 5 4 10 0 6 -5 10 -11 10 -5 0
-7 -4 -4 -10z"/>
<path d="M5090 1699 c0 -5 5 -7 10 -4 6 3 10 8 10 11 0 2 -4 4 -10 4 -5 0 -10
-5 -10 -11z"/>
<path d="M1670 1650 c-8 -5 -10 -10 -5 -10 6 0 17 5 25 10 8 5 11 10 5 10 -5
0 -17 -5 -25 -10z"/>
<path d="M1750 1630 c0 -13 -4 -19 -11 -14 -8 4 -8 0 0 -15 13 -23 6 -45 -10
-35 -5 3 -6 10 -3 16 5 7 2 8 -5 3 -14 -8 1 -30 22 -30 7 -1 11 -6 10 -13 -2
-7 2 -12 7 -12 6 0 10 5 10 11 0 5 5 7 11 3 8 -4 8 -9 0 -17 -6 -6 -11 -15
-11 -21 0 -5 7 -1 16 10 15 19 15 19 10 -1 -4 -15 1 -23 21 -32 15 -7 29 -11
31 -8 3 3 -1 5 -9 5 -11 0 -11 2 1 10 9 6 10 10 3 10 -21 0 -45 31 -34 44 8 9
2 21 -19 41 -17 16 -28 35 -26 42 3 7 1 15 -4 18 -6 4 -10 -3 -10 -15z m54
-82 c-3 -5 -12 -4 -20 3 -8 6 -14 8 -14 5 0 -4 -5 -4 -10 -1 -8 5 -7 11 1 21
8 10 8 14 0 14 -6 0 -11 5 -11 12 0 6 13 -1 30 -17 16 -15 27 -32 24 -37z"/>
<path d="M1764 1568 c-4 -7 -4 -10 1 -6 4 4 15 2 24 -5 14 -11 14 -10 2 6 -16
20 -18 21 -27 5z"/>
<path d="M1702 1604 c-7 -8 -8 -14 -3 -14 10 0 25 19 20 25 -2 1 -10 -3 -17
-11z"/>
<path d="M4837 1595 c-4 -8 -3 -16 1 -19 4 -3 9 4 9 15 2 23 -3 25 -10 4z"/>
<path d="M4730 1539 c0 -5 5 -7 10 -4 6 3 10 8 10 11 0 2 -4 4 -10 4 -5 0 -10
-5 -10 -11z"/>
<path d="M4770 1546 c0 -2 7 -7 16 -10 8 -3 12 -2 9 4 -6 10 -25 14 -25 6z"/>
<path d="M4557 1483 c-10 -9 -9 -23 1 -23 5 0 9 7 9 15 0 17 -1 18 -10 8z"/>
<path d="M1790 1460 c0 -5 7 -7 15 -4 8 4 15 8 15 10 0 2 -7 4 -15 4 -8 0 -15
-4 -15 -10z"/>
<path d="M1870 1442 c0 -5 7 -9 15 -9 8 0 12 4 9 9 -3 4 -9 8 -15 8 -5 0 -9
-4 -9 -8z"/>
<path d="M4426 1398 c3 -5 10 -6 15 -3 13 9 11 12 -6 12 -8 0 -12 -4 -9 -9z"/>
<path d="M1875 1389 c-10 -15 3 -25 16 -12 7 7 7 13 1 17 -6 3 -14 1 -17 -5z"/>
<path d="M1877 1353 c-4 -3 -7 -11 -7 -17 0 -6 5 -5 12 2 6 6 9 14 7 17 -3 3
-9 2 -12 -2z"/>
<path d="M4275 1330 c-4 -6 -11 -7 -17 -4 -7 4 -8 2 -4 -5 6 -9 11 -9 22 0 14
11 18 19 10 19 -3 0 -8 -5 -11 -10z"/>
<path d="M4313 1325 c0 -8 4 -12 9 -9 5 3 6 10 3 15 -9 13 -12 11 -12 -6z"/>
<path d="M4176 1307 c3 -10 9 -15 12 -12 3 3 0 11 -7 18 -10 9 -11 8 -5 -6z"/>
<path d="M1934 1288 c-4 -7 -3 -8 4 -4 7 4 12 3 12 -2 0 -5 7 -9 15 -9 20 0
19 4 -4 17 -14 7 -22 7 -27 -2z"/>
<path d="M1918 1263 c7 -3 16 -2 19 1 4 3 -2 6 -13 5 -11 0 -14 -3 -6 -6z"/>
<path d="M4173 1255 c0 -8 4 -12 9 -9 5 3 6 10 3 15 -9 13 -12 11 -12 -6z"/>
<path d="M3969 1253 c-1 -4 -1 -11 0 -15 0 -5 -3 -8 -9 -8 -19 0 -25 -2 -37
-12 -7 -6 -13 -16 -13 -22 0 -6 4 -5 9 3 7 11 10 10 14 -5 4 -17 5 -17 6 -1 1
11 6 15 13 11 7 -5 8 -3 3 6 -6 10 -4 12 11 6 10 -4 15 -4 11 0 -4 4 -2 13 4
20 7 8 7 14 -1 19 -5 3 -11 3 -11 -2z"/>
<path d="M4039 1233 c-12 -16 -12 -17 2 -6 9 7 19 10 22 6 4 -3 7 -1 7 5 0 17
-16 15 -31 -5z"/>
<path d="M3995 1229 c-4 -6 -4 -13 -1 -16 3 -4 6 -1 6 6 0 7 5 9 12 5 7 -4 8
-3 4 4 -9 15 -13 15 -21 1z"/>
<path d="M1954 1212 c4 -7 2 -20 -6 -30 -12 -16 -11 -16 7 -2 11 8 21 15 23
16 1 1 -5 7 -15 15 -12 10 -15 10 -9 1z"/>
<path d="M3865 1202 c-2 -3 -2 -8 1 -13 5 -9 34 -1 34 10 0 8 -27 10 -35 3z"/>
<path d="M3975 1191 c-3 -5 -2 -12 3 -15 5 -3 9 1 9 9 0 17 -3 19 -12 6z"/>
<path d="M1980 1169 c0 -5 -4 -7 -10 -4 -14 9 -12 -1 3 -13 10 -8 13 -6 14 9
1 10 0 19 -3 19 -2 0 -4 -5 -4 -11z"/>
<path d="M3891 1171 c-8 -5 -9 -11 -3 -15 5 -3 12 1 16 9 6 17 6 18 -13 6z"/>
<path d="M3833 1115 c0 -8 4 -12 9 -9 5 3 6 10 3 15 -9 13 -12 11 -12 -6z"/>
<path d="M1971 1107 c2 -2 11 -8 20 -15 12 -9 16 -9 16 1 0 7 -9 14 -20 14
-11 1 -18 1 -16 0z"/>
<path d="M2050 1020 c0 -5 5 -10 11 -10 5 0 7 5 4 10 -3 6 -8 10 -11 10 -2 0
-4 -4 -4 -10z"/>
<path d="M3496 982 c-2 -4 -1 -14 4 -22 7 -11 9 -9 7 8 -1 24 -3 26 -11 14z"/>
<path d="M3535 980 c3 -5 8 -10 11 -10 2 0 4 5 4 10 0 6 -5 10 -11 10 -5 0 -7
-4 -4 -10z"/>
<path d="M3346 962 c-3 -6 -1 -14 5 -17 15 -10 25 3 12 16 -7 7 -13 7 -17 1z"/>
<path d="M2115 940 c-3 -6 1 -7 9 -4 18 7 21 14 7 14 -6 0 -13 -4 -16 -10z"/>
<path d="M2160 913 c-19 -14 -27 -23 -17 -19 9 3 25 9 35 13 12 4 11 -1 -8
-21 -18 -20 -20 -25 -7 -20 9 3 17 11 17 18 0 6 4 5 9 -4 6 -8 7 -18 4 -24 -3
-5 -1 -6 5 -2 7 4 12 1 12 -9 0 -9 7 -15 16 -13 10 2 19 -3 21 -10 3 -6 -1
-10 -9 -9 -7 2 -10 2 -5 0 4 -3 4 -10 0 -16 -4 -7 1 -6 10 2 10 8 21 10 25 6
4 -4 1 -10 -5 -12 -7 -3 -13 -10 -13 -16 0 -8 4 -7 12 1 17 17 33 15 18 -3 -6
-8 -10 -20 -7 -27 4 -9 6 -8 6 3 1 9 8 22 16 29 14 12 13 16 -6 36 -12 13 -26
21 -30 18 -5 -3 -9 0 -9 6 0 7 -7 9 -16 6 -8 -3 -12 -2 -9 4 3 6 1 10 -5 10
-6 0 -8 5 -4 12 4 6 3 8 -3 5 -6 -4 -13 0 -17 8 -3 8 0 15 7 15 8 0 8 3 -2 9
-7 5 -10 14 -7 20 10 15 7 13 -34 -16z m125 -103 c10 -11 16 -20 13 -20 -3 0
-13 9 -23 20 -10 11 -16 20 -13 20 3 0 13 -9 23 -20z"/>
<path d="M3270 915 c-7 -8 -17 -12 -24 -8 -6 3 -2 -3 8 -15 20 -23 32 -30 21
-12 -3 6 -2 10 4 10 5 0 9 9 8 20 -2 24 -1 24 -17 5z"/>
<path d="M2085 900 c-3 -6 1 -7 9 -4 18 7 21 14 7 14 -6 0 -13 -4 -16 -10z"/>
<path d="M3301 876 c-9 -11 -9 -16 0 -22 7 -4 9 -3 5 4 -3 6 2 15 11 21 10 6
13 11 7 11 -6 0 -17 -6 -23 -14z"/>
<path d="M2230 868 c0 -4 4 -8 9 -8 6 0 12 4 15 8 3 5 -1 9 -9 9 -8 0 -15 -4
-15 -9z"/>
<path d="M2166 842 c-3 -5 1 -9 9 -9 8 0 12 4 9 9 -3 4 -7 8 -9 8 -2 0 -6 -4
-9 -8z"/>
<path d="M3270 841 c0 -6 4 -13 10 -16 6 -3 7 1 4 9 -7 18 -14 21 -14 7z"/>
<path d="M2193 807 c0 -8 6 -14 14 -14 9 0 10 4 2 14 -6 7 -12 13 -14 13 -1 0
-2 -6 -2 -13z"/>
<path d="M3032 807 c-12 -14 2 -47 15 -34 4 5 1 12 -6 16 -11 7 -11 9 0 13 8
3 11 8 8 12 -3 4 -11 1 -17 -7z"/>
<path d="M2215 760 c3 -5 8 -10 11 -10 2 0 4 5 4 10 0 6 -5 10 -11 10 -5 0 -7
-4 -4 -10z"/>
<path d="M3067 759 c7 -7 15 -10 18 -7 3 3 -2 9 -12 12 -14 6 -15 5 -6 -5z"/>
<path d="M2905 740 c10 -11 20 -20 22 -20 2 0 -2 9 -9 20 -7 11 -17 20 -22 20
-5 0 -1 -9 9 -20z"/>
<path d="M2290 719 c0 -5 5 -7 10 -4 6 3 10 8 10 11 0 2 -4 4 -10 4 -5 0 -10
-5 -10 -11z"/>
<path d="M2815 719 c-4 -6 -14 -8 -22 -5 -8 4 -11 1 -8 -5 4 -6 13 -8 20 -5 8
3 16 0 19 -7 3 -9 5 -9 5 0 1 7 8 10 16 7 8 -4 12 -11 8 -17 -3 -6 -1 -7 5 -3
16 10 16 11 -12 30 -17 10 -27 12 -31 5z"/>
<path d="M2890 720 c0 -5 5 -10 11 -10 5 0 7 5 4 10 -3 6 -8 10 -11 10 -2 0
-4 -4 -4 -10z"/>
<path d="M2555 700 c-3 -5 1 -10 10 -10 9 0 13 5 10 10 -3 6 -8 10 -10 10 -2
0 -7 -4 -10 -10z"/>
<path d="M2809 677 c6 -8 7 -18 3 -22 -4 -5 -1 -5 6 -1 10 6 10 11 1 22 -6 8
-14 14 -16 14 -3 0 0 -6 6 -13z"/>
<path d="M2470 670 c0 -6 7 -10 15 -10 8 0 15 2 15 4 0 2 -7 6 -15 10 -8 3
-15 1 -15 -4z"/>
<path d="M2780 660 c-9 -6 -10 -10 -3 -10 6 0 15 5 18 10 8 12 4 12 -15 0z"/>
<path d="M2436 647 c3 -10 9 -15 12 -12 3 3 0 11 -7 18 -10 9 -11 8 -5 -6z"/>
<path d="M2517 645 c2 -7 10 -12 17 -12 7 0 13 5 13 12 0 6 -8 11 -18 11 -9 0
-15 -5 -12 -11z"/>
<path d="M2633 645 c0 -8 4 -12 9 -9 5 3 6 10 3 15 -9 13 -12 11 -12 -6z"/>
<path d="M2466 638 c3 -5 10 -6 15 -3 13 9 11 12 -6 12 -8 0 -12 -4 -9 -9z"/>
</g>
</svg>
